<?xml version="1.0" encoding="utf-8"?>
<!-- Generator: Adobe Illustrator 25.2.0, SVG Export Plug-In . SVG Version: 6.00 Build 0)  -->
<svg version="1.1" id="Layer_1" xmlns="http://www.w3.org/2000/svg" xmlns:xlink="http://www.w3.org/1999/xlink" x="0px" y="0px"
	 viewBox="0 0 1794.5 358" style="enable-background:new 0 0 1794.5 358;" xml:space="preserve">
<style type="text/css">
	.st0{fill:#0276FE;}
	.st1{fill:#FFFFFF;}
	.st2{font-family:'HelveticaNeueLT-75Bd';}
	.st3{font-size:289.1037px;}
	.st4{letter-spacing:-11;}
</style>
<g>
	<g>
		<path class="st0" d="M355.4,212.4V32.9c0-15.5-12.5-28-28-28H122.6v61.6H67.1V4.8H36c-15.5,0-28,12.5-28,28v56.3h36.4v55.5H8
			v179.6c0,15.5,12.6,28,28,28h204.8v-61.6h55.5v61.6h31.1c15.5,0,28-12.6,28-28v-56.3H319v-55.5H355.4z M296.3,144.9v44.8h-55.5
			v-44.8c0-0.2-0.1-0.3-0.3-0.3h-95.2V89.2h95.2C271.3,89.2,296.3,114.2,296.3,144.9z M67.1,212.1v-44.8h55.5v44.8
			c0,0.2,0.1,0.3,0.3,0.3h95.2v55.5h-95.2C92.1,267.9,67.1,242.9,67.1,212.1z"/>
		<g>
			<text transform="matrix(1 0 0 1 428.4077 275.8789)" class="st1 st2 st3 st4">Gapp</text>
		</g>
	</g>
</g>
</svg>
